<svg xmlns="http://www.w3.org/2000/svg" width="474.604" height="140.252" viewBox="0 0 474.604 140.252">
  <g id="그룹_27" data-name="그룹 27" transform="translate(-185.666 -466.849)">
    <g id="그룹_26" data-name="그룹 26">
      <g id="그룹_22" data-name="그룹 22">
        <g id="그룹_20" data-name="그룹 20">
          <g id="그룹_19" data-name="그룹 19">
            <path id="패스_482" data-name="패스 482" d="M188.714,584.735h-2.7v-62h2.7Zm5.394,0h-2.7v-62h2.7Zm5.394,0h-2.7v-62h2.7Zm33.01-41.776a20.2,20.2,0,0,1-8.684,16.613l10.114,25.163h-2.913l-9.547-23.76A18.618,18.618,0,0,1,219,562.027l9.115,22.708h-2.885l-8.846-21.98a18.141,18.141,0,0,1-2.751.377l8.684,21.6H219.4l-8.657-21.576h-2.913l8.657,21.576h-2.885L204.9,563.024v7.255l5.8,14.456h-2.913l-2.885-7.5v7.5h-2.7v-62h10.113A20.212,20.212,0,0,1,232.512,542.959ZM204.9,525.429v2.7h7.416a14.834,14.834,0,0,1,0,29.667H204.9v2.7h7.416a17.531,17.531,0,0,0,0-35.061Zm0,5.394v2.7h7.416a9.44,9.44,0,0,1,0,18.879H204.9v2.7h7.416a12.137,12.137,0,0,0,0-24.273Zm0,5.394v2.7h7.416a4.046,4.046,0,0,1,0,8.091H204.9v2.7h7.416a6.743,6.743,0,0,0,0-13.485Zm0,5.394v2.7h7.416a1.348,1.348,0,0,0,1.322-1.349,1.33,1.33,0,0,0-1.322-1.348Z" fill="#ff5100"/>
            <path id="패스_483" data-name="패스 483" d="M240.687,584.735h-2.7v-62h2.7Zm5.394,0h-2.7v-62h2.7Zm5.394,0h-2.7v-62h2.7Zm28.292-59.306h-22.9v2.7h22.9v2.7h-22.9v2.7h22.9v2.7h-22.9v2.7h22.9v2.7h-22.9v2.7h16.155v2.7H256.869v2.7h16.155v2.7H256.869v2.7h16.155v2.7H256.869v2.7h16.155v2.669H256.869v2.7h22.9v2.7h-22.9v2.7h22.9v2.7h-22.9v2.7h22.9v2.7h-22.9v2.7h22.9v2.7h-25.6v-62h25.6Z" fill="#ff5100"/>
            <path id="패스_484" data-name="패스 484" d="M339.561,569.578a31.676,31.676,0,1,1,0-31.689l-2.347,1.348a28.978,28.978,0,1,0,0,28.993Zm-4.666-28.992-2.346,1.348a23.585,23.585,0,1,0,0,23.6l2.346,1.348a26.281,26.281,0,1,1,0-26.295Zm-4.693,2.7-2.319,1.348a18.192,18.192,0,1,0,0,18.205l2.319,1.348a20.888,20.888,0,1,1,0-20.9Zm-4.665,2.7-2.32,1.348a12.8,12.8,0,1,0,0,12.811l2.32,1.348a15.494,15.494,0,1,1,0-15.507Zm-4.666,2.7-2.346,1.349a7.431,7.431,0,1,0,0,7.417l2.346,1.348a10.1,10.1,0,1,1,0-10.114Zm-4.666,2.7-2.346,1.349a2.026,2.026,0,1,0-1.753,3.048,2,2,0,0,0,1.753-1.025l2.346,1.348a4.706,4.706,0,1,1,0-4.72Z" fill="#ff5100"/>
            <path id="패스_485" data-name="패스 485" d="M402,553.747a31.689,31.689,0,1,1-31.69-31.689A31.681,31.681,0,0,1,402,553.747Zm-60.682,0a28.993,28.993,0,1,0,28.992-28.992A28.994,28.994,0,0,0,341.318,553.747Zm55.288,0a26.3,26.3,0,1,1-26.3-26.295A26.289,26.289,0,0,1,396.606,553.747Zm-49.894,0a23.6,23.6,0,1,0,23.6-23.6A23.584,23.584,0,0,0,346.712,553.747Zm44.5,0a20.9,20.9,0,1,1-20.9-20.9A20.9,20.9,0,0,1,391.212,553.747Zm-39.106,0a18.2,18.2,0,1,0,18.2-18.205A18.192,18.192,0,0,0,352.106,553.747Zm33.712,0a15.507,15.507,0,1,1-15.508-15.508A15.5,15.5,0,0,1,385.818,553.747Zm-28.318,0a12.811,12.811,0,1,0,12.81-12.811A12.8,12.8,0,0,0,357.5,553.747Zm22.924,0a10.114,10.114,0,1,1-10.114-10.114A10.095,10.095,0,0,1,380.424,553.747Zm-17.53,0a7.416,7.416,0,1,0,7.416-7.417A7.407,7.407,0,0,0,362.894,553.747Zm12.136,0a4.719,4.719,0,1,1-4.72-4.72A4.725,4.725,0,0,1,375.03,553.747Zm-6.742,0a2.023,2.023,0,1,0,2.022-2.023A2.037,2.037,0,0,0,368.288,553.747Z" fill="#ff5100"/>
            <path id="패스_486" data-name="패스 486" d="M408.747,584.735h-2.7v-62h2.7Zm5.394,0h-2.7v-62h2.7Zm5.393,0h-2.7v-62h2.7Zm33.011-41.776a20.2,20.2,0,0,1-8.684,16.613l10.114,25.163h-2.913l-9.547-23.76a18.618,18.618,0,0,1-2.481,1.052l9.115,22.708h-2.885l-8.847-21.98a18.111,18.111,0,0,1-2.75.377l8.684,21.6h-2.913l-8.657-21.576h-2.913l8.657,21.576H433.64l-8.712-21.711v7.255l5.8,14.456h-2.913l-2.886-7.5v7.5h-2.7v-62h10.114A20.212,20.212,0,0,1,452.545,542.959Zm-27.617-17.53v2.7h7.417a14.834,14.834,0,0,1,0,29.667h-7.417v2.7h7.417a17.531,17.531,0,0,0,0-35.061Zm0,5.394v2.7h7.417a9.44,9.44,0,0,1,0,18.879h-7.417v2.7h7.417a12.137,12.137,0,0,0,0-24.273Zm0,5.394v2.7h7.417a4.046,4.046,0,0,1,0,8.091h-7.417v2.7h7.417a6.743,6.743,0,0,0,0-13.485Zm0,5.394v2.7h7.417a1.348,1.348,0,0,0,1.322-1.349,1.33,1.33,0,0,0-1.322-1.348Z" fill="#ff5100"/>
            <path id="패스_487" data-name="패스 487" d="M460.72,584.735h-2.7v-62h2.7Zm5.394,0h-2.7v-62h2.7Zm5.394,0h-2.7v-62h2.7Zm40.643-30.988a31,31,0,0,1-31.014,30.988H474.2v-62h6.932A31.019,31.019,0,0,1,512.151,553.747ZM476.9,525.429v2.7h4.235a25.608,25.608,0,1,1,0,51.215H476.9v2.7h4.235a28.3,28.3,0,1,0,0-56.609Zm0,5.394v2.7h4.235a20.214,20.214,0,1,1,0,40.427H476.9v2.7h4.235a22.91,22.91,0,1,0,0-45.821Zm0,5.394v2.7h4.235a14.819,14.819,0,1,1,0,29.639H476.9v2.7h4.235a17.517,17.517,0,1,0,0-35.033Zm0,5.394v2.7h4.235a9.426,9.426,0,1,1,0,18.851H476.9v2.7h4.235a12.123,12.123,0,1,0,0-24.245Zm0,5.394v2.7h4.235a4.046,4.046,0,0,1,0,8.091H476.9v2.7h4.235a6.742,6.742,0,0,0,0-13.485Zm0,5.394v2.7h4.235a1.353,1.353,0,0,0,1.348-1.349,1.335,1.335,0,0,0-1.348-1.348Z" fill="#ff5100"/>
          </g>
        </g>
        <g id="그룹_21" data-name="그룹 21">
          <path id="패스_488" data-name="패스 488" d="M572.506,542.959a20.683,20.683,0,0,1-2.455,9.817l-6.985,13.08h9.682v2.7h-32.5l3.371-6.311a20.888,20.888,0,1,1,28.885-19.283Zm.242,41.776H531.62l1.429-2.7h39.7ZM533.4,542.959a18.233,18.233,0,0,0,11.489,16.91l1.268-2.4a15.5,15.5,0,1,1,20.955-14.51,15.325,15.325,0,0,1-1.807,7.282l-8.334,15.615h3.048l7.659-14.348a18.2,18.2,0,1,0-34.278-8.549Zm39.348,36.382H534.479l1.456-2.7h36.813Zm0-5.394H537.364l1.43-2.7h33.954Zm-33.954-30.988a12.8,12.8,0,0,0,8.657,12.109l1.295-2.427a10.1,10.1,0,1,1,11.785-4.935l-9.682,18.15H553.9l9.008-16.883a12.51,12.51,0,0,0,1.51-6.014,12.81,12.81,0,0,0-25.621,0Zm5.394,0a7.379,7.379,0,0,0,5.852,7.228l1.348-2.535a4.709,4.709,0,1,1,4.936-4.693,4.609,4.609,0,0,1-.566,2.239l-11.031,20.658H547.8l10.356-19.418a7.418,7.418,0,1,0-13.97-3.479Zm5.394,0a2.023,2.023,0,1,0,4.045,0,2.023,2.023,0,1,0-4.045,0Z" fill="#ff5100"/>
          <path id="패스_489" data-name="패스 489" d="M616.576,542.609a20.459,20.459,0,0,1-3.29,11.138,20.3,20.3,0,0,1,3.29,11.111,20.564,20.564,0,1,1-37.865-11.111,20.566,20.566,0,1,1,37.865-11.138Zm-38.432,0a17.877,17.877,0,0,0,2.32,8.792,22.917,22.917,0,0,1,2-2A15.159,15.159,0,1,1,596,557.793a7.066,7.066,0,1,0,7.093,7.065,7.276,7.276,0,0,0-.566-2.75,21.277,21.277,0,0,1-2.643.7A4.385,4.385,0,1,1,596,560.49a17.867,17.867,0,1,0-17.854-17.881Zm10.788,0a7.169,7.169,0,0,0,.566,2.75,21.234,21.234,0,0,1,2.644-.7,4.268,4.268,0,0,1-.513-2.049,4.382,4.382,0,1,1,4.369,4.4,17.864,17.864,0,1,0,15.562,9.062,23.48,23.48,0,0,1-2,1.995A15.168,15.168,0,1,1,596,549.7a7.08,7.08,0,1,0-7.066-7.093Zm-5.394,0a12.484,12.484,0,0,0,1.106,5.124,20.282,20.282,0,0,1,2.346-1.349A9.775,9.775,0,1,1,596,552.4a12.469,12.469,0,1,0,11.381,7.335,16.987,16.987,0,0,1-2.346,1.349A9.782,9.782,0,1,1,596,555.1a12.474,12.474,0,1,0-12.46-12.487Zm10.788,0A1.686,1.686,0,1,0,596,540.936,1.686,1.686,0,0,0,594.326,542.609Zm0,22.249a1.686,1.686,0,1,0,1.672-1.7A1.681,1.681,0,0,0,594.326,564.858Z" fill="#ff5100"/>
          <path id="패스_490" data-name="패스 490" d="M660.27,555.1v2.669H619.276l17.072-35.033h2.832L623,555.1h2.859l16.154-32.364h2.859L628.689,555.1h2.858L647.7,522.732h2.832L634.379,555.1h2.832l16.182-32.364h2.831V555.1Zm-40.994,5.394H660.27v2.7H619.276Zm0,5.393H660.27v2.7H619.276Zm0,5.394H660.27v2.7h-4.046v10.761h-2.7V573.974h-2.7v10.761h-2.7V573.974h-2.7v10.761h-2.7V573.974h-2.7v10.761h-2.7V573.974h-18.07ZM640.069,555.1h2.671v-5.341Zm8.064-16.155-2.7,5.394V555.1h2.7Zm2.7-5.394V555.1h2.7v-26.97Z" fill="#ff5100"/>
        </g>
      </g>
      <g id="그룹_25" data-name="그룹 25">
        <g id="그룹_23" data-name="그룹 23">
          <path id="패스_491" data-name="패스 491" d="M420.769,476.526h-7.923v6.18c0,.032,0,.059,0,.092a.869.869,0,0,1-.623.751,21.989,21.989,0,0,0-13.155,16.817,23.248,23.248,0,0,0-.253,2.644h8.811a13.171,13.171,0,0,1,26.29,0h8.812a23.248,23.248,0,0,0-.253-2.644,21.991,21.991,0,0,0-13.155-16.817.869.869,0,0,1-.623-.751c0-.033,0-.06,0-.092v-6.18Zm19.022,23.84h-3.6a15.8,15.8,0,0,0-30.837,0h-3.6a19.355,19.355,0,0,1,11.4-14.338,3.518,3.518,0,0,0,2.325-2.982c.011-.117.014-.236.014-.353v-3.521h10.575v3.521c0,.117,0,.236.013.353a3.519,3.519,0,0,0,2.326,2.982A19.355,19.355,0,0,1,439.791,500.366Z" fill="#ff5100"/>
          <path id="패스_492" data-name="패스 492" d="M652.369,500.366h-194.7v-1.775a3.5,3.5,0,1,0-7.009,0v1.775h-3.774a26.374,26.374,0,0,0-13.825-19.888v-4.822a3.512,3.512,0,0,0-3.5-3.518h-5.285v-1.774a3.509,3.509,0,1,0-7.017,0v1.774h-5.285a3.512,3.512,0,0,0-3.5,3.518v4.822a26.371,26.371,0,0,0-13.825,19.888h-3.774v-1.775a3.5,3.5,0,1,0-7.009,0v1.775H189.17a3.514,3.514,0,0,0-3.5,3.518v7.033H188.3v-7.033a.871.871,0,0,1,.867-.874H386.5v-4.419a.87.87,0,1,1,1.74,0v4.419h8.841a25.213,25.213,0,0,1,.223-2.644,23.741,23.741,0,0,1,13.8-18.233v-6.477a.873.873,0,0,1,.87-.869H419.9v-4.423a.87.87,0,1,1,1.739,0v4.423h7.924a.872.872,0,0,1,.869.869v6.477a23.74,23.74,0,0,1,13.8,18.233,25.23,25.23,0,0,1,.223,2.644H453.3v-4.419a.87.87,0,1,1,1.74,0v4.419H652.369a.871.871,0,0,1,.867.874v7.033h2.637v-7.033A3.514,3.514,0,0,0,652.369,500.366Z" fill="#ff5100"/>
          <path id="패스_493" data-name="패스 493" d="M432.21,503.884a11.441,11.441,0,1,0-22.882,0,.867.867,0,0,1-.866.873H190.04v6.16h2.634V507.4H408.462a3.512,3.512,0,0,0,3.506-3.516,8.8,8.8,0,1,1,17.6,0,3.512,3.512,0,0,0,3.506,3.516H648.865v3.517H651.5v-6.16H433.077A.867.867,0,0,1,432.21,503.884Z" fill="#ff5100"/>
        </g>
        <g id="그룹_24" data-name="그룹 24">
          <path id="패스_494" data-name="패스 494" d="M653.238,596.55v7.033a.87.87,0,0,1-.87.874h-463.2a.87.87,0,0,1-.87-.874V596.55h-2.635v7.033a3.513,3.513,0,0,0,3.505,3.518h463.2a3.513,3.513,0,0,0,3.505-3.518V596.55Z" fill="#ff5100"/>
          <path id="패스_495" data-name="패스 495" d="M651.5,602.71v-6.16h-2.635v3.517H192.673V596.55h-2.635v6.16H651.5Z" fill="#ff5100"/>
        </g>
      </g>
    </g>
    <rect id="사각형_169" data-name="사각형 169" width="2.697" height="62.003" transform="translate(254.26 522.732)" fill="#ff5100"/>
  </g>
</svg>
